<?xml version="1.0" encoding="UTF-8"?>
            <!DOCTYPE svg PUBLIC "-//W3C//DTD SVG 1.1//EN" "http://www.w3.org/Graphics/SVG/1.1/DTD/svg11.dtd"><svg xmlns="http://www.w3.org/2000/svg" version="1.1" width="300" height="300" viewBox="-100 -100 200 200">
                    <defs>
                        <clipPath id="circleClip">
                            <circle cx="0" cy="0" r="100" />
                        </clipPath>
                    </defs>
                    <g clip-path="url(#circleClip)">
                        <rect x="-100" y="-100" width="200" height="200" fill="black"/>
                        <path d="M -100 -48
            L -73.5424868893541 -48
            C -57.34248688935409 -48, -36.48559975898776 -75, -20.285599758987757 -75        
            L 100 -75
            L 100 -45
            L -15.418831772491444 -45
            C -37.018831772491446 -45, -46.54093535585202 -33, -68.14093535585202 -33
            L -100 -33
            Z" fill="#adf" stroke="#adf" stroke-width="1"/>
                        <path d="M -100 -40.5
                    L -70.84171112260306 -40.5
                    C -51.94171112260305 -40.5, -36.75221576573961 -60, -17.8522157657396 -60
                    L 100 -60" fill="none" stroke="#000" stroke-width="5"/>
                        <path d="M -100 -12
            L -73.5424868893541 -12
            C -57.34248688935409 -12, -50.05621722338523 15, -33.85621722338523 15        
            L 21.418831772491444 15
            C 43.018831772491446 15, 46.54093535585202 27, 68.14093535585202 27
            L 100 27
            L 100 12
            L 73.5424868893541 12
            C 57.34248688935409 12, 50.05621722338523 -15, 33.85621722338523 -15
            L -21.418831772491444 -15
            C -43.018831772491446 -15, -46.54093535585202 -27, -68.14093535585202 -27
            L -100 -27
            Z" fill="#6af" stroke="#6af" stroke-width="1"/>
                <path d="M -100 -19.5
                    L -70.84171112260306 -19.5
                    C -51.94171112260305 -19.5, -46.537524497938335 0, -27.637524497938337 0
                    L 27.637524497938337 0
                    C 46.537524497938335 0, 51.94171112260305 19.5, 70.84171112260306 19.5
                    L 100 19.5" fill="none" stroke="#000" stroke-width="5"/>
                        <path d="M 100 48
            L 73.5424868893541 48
            C 57.34248688935409 48, 36.48559975898776 75, 20.285599758987757 75        
            L -100 75
            L -100 45
            L 15.418831772491444 45
            C 37.018831772491446 45, 46.54093535585202 33, 68.14093535585202 33
            L 100 33
            Z" fill="#04f" stroke="#04f" stroke-width="1"/>
                        <path d="M 100 40.5
                    L 70.84171112260306 40.5
                    C 51.94171112260305 40.5, 36.75221576573961 60, 17.8522157657396 60
                    L -100 60" fill="none" stroke="#000" stroke-width="5"/>
                    </g>
                    <circle cx="0" cy="0" r="100" fill="none" stroke='#000' stroke-width='1'/> 
                </svg>